# xmcd
#
# Track frame offsets:
#	150
#	17188
#	31469
#	47237
#	66753
#	88132
#	105579
#	123071
#	136604
#	152452
#	170297
#
# Disc length: 2507 seconds
#
# Revision: 0
# Processed by: cddbd v1.5.2PL0 Copyright (c) Steve Scherf et al.
# Submitted via: EasyCDDAExtractor 4.6.9.1
#
DISCID=8209c90b
DTITLE=Martina McBride - Waking Up Laughing
DYEAR=2007
DGENRE=Country
TTITLE0=If I Had Your Name
TTITLE1=Cry Cry (Till The Sun Shines)
TTITLE2=Tryin' To Find A Reason
TTITLE3=For These Times
TTITLE4=Anyway (Album and Digital Single Version)
TTITLE5=How I Feel
TTITLE6=I'll Still Be Me
TTITLE7=Beautiful Again
TTITLE8=Everybody Does
TTITLE9=House Of A Thousand Dreams
TTITLE10=Love Land
EXTD=
EXTT0=
EXTT1=
EXTT2=
EXTT3=
EXTT4=
EXTT5=
EXTT6=
EXTT7=
EXTT8=
EXTT9=
EXTT10=
PLAYORDER=
